<svg xmlns="http://www.w3.org/2000/svg" viewBox="0 0 60 60"><defs><style>.cls-1{fill:#165dba;}</style></defs><g id="Layer_1" data-name="Layer 1"><path class="cls-1" d="M51,25.73c0-.14,0-.28,0-.43a15,15,0,0,0-28-7.46,8.85,8.85,0,0,0-5-1.54,9.91,9.91,0,0,0-3.67.73,8.72,8.72,0,0,0-5.32,8.63v.07A12,12,0,0,0,.24,39.41,12.28,12.28,0,0,0,12.46,49.3H47.64a12.29,12.29,0,0,0,12.23-9.87A12,12,0,0,0,51,25.73Zm7.64,13.49a11,11,0,0,1-11,8.88H12.46a11.15,11.15,0,0,1-11-8.9A10.83,10.83,0,0,1,9.36,26.89a1.19,1.19,0,0,0,.9-1.23V25.6a7.48,7.48,0,0,1,4.56-7.46,8.85,8.85,0,0,1,3.23-.64,7.63,7.63,0,0,1,4.33,1.33,1.19,1.19,0,0,0,.68.21,1.18,1.18,0,0,0,1-.61A13.79,13.79,0,0,1,49.85,25.3c0,.12,0,.24,0,.35a1.2,1.2,0,0,0,.9,1.24A10.84,10.84,0,0,1,58.68,39.22Z"/></g></svg>