<svg width="30" height="31" viewBox="0 0 30 31" fill="none" xmlns="http://www.w3.org/2000/svg">
<path fill-rule="evenodd" clip-rule="evenodd" d="M2.91677 0.792236C1.30594 0.792236 0.000101727 2.09807 0.000101727 3.7089V18.2785C-3.40043e-05 18.2872 -3.38138e-05 18.2959 0.000101727 18.3046V27.8756C0.000101727 29.4864 1.30594 30.7922 2.91677 30.7922H27.0834C28.6943 30.7922 30.0001 29.4864 30.0001 27.8756V3.7089C30.0001 2.09807 28.6943 0.792236 27.0834 0.792236H2.91677ZM1.66677 18.5574V27.8756C1.66677 28.5659 2.22641 29.1256 2.91677 29.1256H27.0834C27.7738 29.1256 28.3334 28.5659 28.3334 27.8756V19.1256H22.9688C22.7565 19.1256 22.5523 19.0446 22.3977 18.8991L20.6334 17.2385L18.4305 22.7674C18.299 23.0974 17.9728 23.3077 17.6179 23.2914C17.2631 23.275 16.9576 23.0355 16.8571 22.6948L13.1022 9.97258L9.57356 18.6075C9.46461 18.8741 9.22573 19.0655 8.9418 19.1138C8.65788 19.1621 8.36915 19.0603 8.17824 18.8447L4.44772 14.6314L1.66677 18.5574ZM28.3334 17.4589V3.7089C28.3334 3.01855 27.7738 2.4589 27.0834 2.4589H2.91677C2.22641 2.4589 1.66677 3.01855 1.66677 3.7089V15.674L3.69505 12.8106C3.84209 12.603 4.0759 12.4739 4.32992 12.4601C4.58394 12.4464 4.83034 12.5494 4.99898 12.7398L8.53769 16.7365L12.4578 7.14367C12.5917 6.81609 12.9179 6.60878 13.2713 6.62664C13.6247 6.64449 13.9283 6.88362 14.0285 7.22302L17.7737 19.9128L19.5384 15.4838C19.6405 15.2275 19.8628 15.0384 20.1321 14.9787C20.4014 14.919 20.6828 14.9964 20.8837 15.1854L23.2993 17.4589H28.3334Z" fill="black"/>
</svg>
