<svg width="40" height="25" viewBox="0 0 40 25" fill="none" xmlns="http://www.w3.org/2000/svg">
<path d="M35.4977 16.3832L33.4977 11.8399L31.4864 16.3166L26.9897 18.3479L31.4191 20.3926L33.4971 24.8486L35.5284 20.3926L40.0077 18.3472L35.4977 16.3832Z" fill="black"/>
<path d="M34.1411 10.4506V3.76923C34.1411 2.88334 33.7893 2.03373 33.1629 1.40725C32.5366 0.780775 31.687 0.428735 30.8011 0.428558L0.00781277 0.428558V21.0866C0.00763763 21.5254 0.0939173 21.9599 0.261723 22.3654C0.429529 22.7708 0.675573 23.1393 0.9858 23.4496C1.29603 23.76 1.66436 24.0062 2.06975 24.1741C2.47515 24.3421 2.90966 24.4286 3.34848 24.4286H31.8151L31.1871 23.0952H3.34848C3.08466 23.0956 2.82337 23.0439 2.57958 22.943C2.3358 22.8422 2.11431 22.6942 1.92782 22.5076C1.74134 22.321 1.59352 22.0994 1.49285 21.8556C1.39217 21.6117 1.34062 21.3504 1.34115 21.0866V1.76189H30.8011C31.0648 1.76163 31.3259 1.81337 31.5695 1.91417C31.8132 2.01496 32.0345 2.16282 32.2209 2.34928C32.4073 2.53574 32.5551 2.75714 32.6558 3.00079C32.7565 3.24445 32.8082 3.50558 32.8078 3.76923V10.4506H34.1411Z" fill="black"/>
<path d="M6.58203 6.58856H27.434V7.92456H6.58203V6.58856Z" fill="black"/>
<path d="M6.58203 10.5305H27.434V11.8665H6.58203V10.5305Z" fill="black"/>
<path d="M6.58203 14.4659H27.434V15.8019H6.58203V14.4659Z" fill="black"/>
</svg>
