<svg width="34" height="30" viewBox="0 0 34 30" fill="none" xmlns="http://www.w3.org/2000/svg">
<path fill-rule="evenodd" clip-rule="evenodd" d="M15.6933 4.75545C12.5496 1.67856 7.51486 1.70563 4.40436 4.81613C1.27162 7.94887 1.26983 13.0275 4.40035 16.1624L16.2696 28.0485C16.665 28.4444 17.3083 28.439 17.6969 28.0363L18.9778 26.7092L15.551 23.3496C15.2224 23.0274 15.2172 22.4998 15.5394 22.1712C15.8616 21.8425 16.3892 21.8373 16.7178 22.1595L20.1353 25.5099L21.9641 23.6152L18.6313 20.2841C18.3057 19.9587 18.3056 19.4311 18.631 19.1056C18.9563 18.78 19.4839 18.7799 19.8095 19.1053L23.1217 22.4158L25.024 20.4448L21.7165 17.2427C21.3859 16.9225 21.3773 16.395 21.6974 16.0643C22.0176 15.7336 22.5451 15.7251 22.8758 16.0452L26.1815 19.2456L28.0962 17.2617L21.8433 11.0264C20.8814 10.0672 19.3296 10.0517 18.3486 10.9913L16.1276 13.1189C14.9205 14.2813 12.9985 14.2465 11.8354 13.0397C10.6734 11.834 10.7074 9.91543 11.9103 8.75161L15.8208 4.88021L15.6933 4.75545ZM17.0054 3.7075L16.8591 3.56434C13.0625 -0.1515 6.98228 -0.118813 3.22585 3.63762C-0.557439 7.42091 -0.559607 13.5542 3.221 17.3401L15.0902 29.2262C16.1446 30.282 17.86 30.2674 18.8961 29.1938L29.8597 17.8345C31.6671 16.0254 33.0899 13.712 33.4547 11.2122C33.826 8.66817 33.086 6.01867 30.7241 3.65677C26.9634 -0.103923 20.8708 -0.119247 17.0913 3.62248L17.0054 3.7075ZM29.2466 16.0551C30.5884 14.5401 31.5427 12.7721 31.8055 10.9715C32.0981 8.9667 31.5486 6.8383 29.5456 4.83529C26.4334 1.72315 21.3916 1.71047 18.2638 4.80691L13.0712 9.94754C12.5268 10.4722 12.5108 11.3387 13.0354 11.8831C13.5601 12.4275 14.4267 12.4435 14.9711 11.9188L14.9729 11.9171L17.1957 9.78778C18.8306 8.22164 21.4169 8.24759 23.0201 9.84622L29.2466 16.0551Z" fill="black"/>
</svg>
