<svg width="30" height="31" viewBox="0 0 30 31" fill="none" xmlns="http://www.w3.org/2000/svg">
<path d="M2.5 6.81248C2.5 5.94954 3.19955 5.24998 4.0625 5.24998H12.1875C13.0504 5.24998 13.75 5.94954 13.75 6.81248V8.68748C13.75 8.86007 13.6101 8.99998 13.4375 8.99998H2.5V6.81248Z" fill="#0278AB"/>
<path d="M9.69125 10.25C9.86177 10.25 10 10.3882 10 10.5587C10 10.6618 9.94787 10.757 9.86575 10.8193C9.18789 11.3328 8.75 12.1465 8.75 13.0625V15.25H5.625C5.27982 15.25 5 15.5298 5 15.875C5 16.2202 5.27982 16.5 5.625 16.5H8.75V17.75H5.625C5.27982 17.75 5 18.0298 5 18.375C5 18.7202 5.27982 19 5.625 19H8.75V20.25H5.625C5.27982 20.25 5 20.5298 5 20.875C5 21.2202 5.27982 21.5 5.625 21.5H8.76717C8.92262 22.9062 10.1148 24 11.5625 24H13.3364C13.534 24 13.6828 24.1834 13.5975 24.3616C13.3458 24.8871 12.809 25.25 12.1875 25.25H4.0625C3.19955 25.25 2.5 24.5504 2.5 23.6875V10.25H9.69125Z" fill="#0278AB"/>
<path d="M10 13.0625C10 12.1995 10.6996 11.5 11.5625 11.5H25.9375C26.8004 11.5 27.5 12.1995 27.5 13.0625V21.1875C27.5 22.0504 26.8004 22.75 25.9375 22.75H19.375V24H21.875C22.2202 24 22.5 24.2798 22.5 24.625C22.5 24.9702 22.2202 25.25 21.875 25.25H15.625C15.2798 25.25 15 24.9702 15 24.625C15 24.2798 15.2798 24 15.625 24H18.125V22.75H11.5625C10.6996 22.75 10 22.0504 10 21.1875V13.0625Z" fill="#0278AB"/>
</svg>
