<svg width="50" height="50" viewBox="0 0 50 50" fill="none" xmlns="http://www.w3.org/2000/svg">
<path d="M42.0975 10V10.3H42.3975H44.901C47.4977 10.3 49.5981 12.4052 49.5981 15V44.553V44.5668L49.5993 44.5806C49.848 47.2711 47.7284 49.7 44.9165 49.7H10.8808C8.74262 49.7 6.87389 48.2568 6.33343 46.188L0.455267 23.688C-0.322802 20.7098 1.92444 17.8 5.00264 17.8H7.39746H7.69746V17.5V5C7.69746 2.40426 9.80172 0.3 12.3975 0.3H37.3975C39.9932 0.3 42.0975 2.40426 42.0975 5V10ZM9.59746 17.5V17.8H9.89746H39.0384C39.3129 17.8 39.5829 17.8238 39.846 17.8696L40.1975 17.9307V17.574V5C40.1975 3.4536 38.9439 2.2 37.3975 2.2H12.3975C10.8511 2.2 9.59746 3.4536 9.59746 5V17.5ZM42.0975 18.7964V18.9293L42.196 19.0186C42.8555 19.6165 43.3485 20.4039 43.5857 21.312L47.1078 34.7935L47.6981 34.7176V15C47.6981 13.4526 46.4464 12.2 44.901 12.2H42.3975H42.0975V12.5V18.7964ZM47.6794 44.5438C47.6654 44.46 47.6475 44.3761 47.6256 44.2922L41.7474 21.7922C41.4255 20.5598 40.3122 19.7 39.0384 19.7H5.00264C3.16883 19.7 1.83004 21.4335 2.29357 23.2078L8.17173 45.7077C8.49371 46.9402 9.60699 47.8 10.8808 47.8H44.9165C46.5665 47.8 47.8145 46.3975 47.712 44.8242L47.6937 44.5438H47.6794ZM15.1975 8.75C15.1975 8.22533 15.6228 7.8 16.1475 7.8H33.6475C34.1721 7.8 34.5975 8.22533 34.5975 8.75C34.5975 9.27467 34.1721 9.7 33.6475 9.7H16.1475C15.6228 9.7 15.1975 9.27467 15.1975 8.75ZM15.1975 13.75C15.1975 13.2253 15.6228 12.8 16.1475 12.8H33.6475C34.1721 12.8 34.5975 13.2253 34.5975 13.75C34.5975 14.2747 34.1721 14.7 33.6475 14.7H16.1475C15.6228 14.7 15.1975 14.2747 15.1975 13.75Z" fill="#212121" stroke="white" stroke-width="0.6"/>
</svg>
