<svg width="38" height="37" viewBox="0 0 38 37" fill="none" xmlns="http://www.w3.org/2000/svg">
<path d="M37.5254 18.5C37.5254 14.8 34.8532 11.9222 31.3587 11.3056C30.7421 5.13889 25.6032 0 19.0254 0C12.4476 0 7.30872 5.13889 6.69206 11.3056C3.19761 11.9222 0.525391 14.8 0.525391 18.5C0.525391 22.4056 3.81428 25.6944 7.71984 25.6944H8.74761V13.3611V12.3333C8.74761 6.57778 13.2698 2.05556 19.0254 2.05556C24.7809 2.05556 29.3032 6.57778 29.3032 12.3333V13.3611V24.6667V25.6944C29.3032 29.6 26.6309 32.8889 23.1365 32.8889H22.9309C22.5198 31.6556 21.2865 30.8333 20.0532 30.8333C18.4087 30.8333 16.9698 32.2722 16.9698 33.9167C16.9698 35.5611 18.4087 37 20.0532 37C21.4921 37 22.5198 36.1778 22.9309 34.9444H23.1365C27.6587 34.9444 31.3587 30.8333 31.3587 25.6944V25.4889C34.8532 25.0778 37.5254 22.2 37.5254 18.5ZM6.69206 23.4333C4.43095 23.0222 2.58095 20.9667 2.58095 18.5C2.58095 16.0333 4.43095 13.9778 6.69206 13.5667V23.4333ZM31.3587 23.4333V13.5667C33.6198 13.9778 35.4698 16.0333 35.4698 18.5C35.4698 20.9667 33.6198 23.0222 31.3587 23.4333Z" fill="#0076AD"/>
</svg>
