<svg width="30" height="30" viewBox="0 0 30 30" fill="none" xmlns="http://www.w3.org/2000/svg">
<path fill-rule="evenodd" clip-rule="evenodd" d="M6.25 8.75H8.75V6.25C8.75 4.86929 9.86929 3.75 11.25 3.75H18.75C20.1307 3.75 21.25 4.86929 21.25 6.25V8.75H23.75C25.1307 8.75 26.25 9.86929 26.25 11.25V18.75C26.25 20.1307 25.1307 21.25 23.75 21.25H23.125C22.7798 21.25 22.5 20.9702 22.5 20.625C22.5 20.2798 22.7798 20 23.125 20H23.75C24.4404 20 25 19.4404 25 18.75V11.25C25 10.5596 24.4404 10 23.75 10H6.25C5.55964 10 5 10.5596 5 11.25V18.75C5 19.4404 5.55964 20 6.25 20H6.875C7.22018 20 7.5 20.2798 7.5 20.625C7.5 20.9702 7.22018 21.25 6.875 21.25H6.25C4.86929 21.25 3.75 20.1307 3.75 18.75V11.25C3.75 9.86929 4.86929 8.75 6.25 8.75ZM11.25 5C10.5596 5 10 5.55964 10 6.25V8.75H20V6.25C20 5.55964 19.4404 5 18.75 5H11.25Z" fill="#0278AB"/>
<path d="M6.875 11.25C6.52982 11.25 6.25 11.5298 6.25 11.875C6.25 12.2202 6.52982 12.5 6.875 12.5H8.125C8.47018 12.5 8.75 12.2202 8.75 11.875C8.75 11.5298 8.47018 11.25 8.125 11.25H6.875Z" fill="#0278AB"/>
<path d="M11.875 19.375C11.5298 19.375 11.25 19.6548 11.25 20C11.25 20.3452 11.5298 20.625 11.875 20.625H18.125C18.4702 20.625 18.75 20.3452 18.75 20C18.75 19.6548 18.4702 19.375 18.125 19.375H11.875Z" fill="#0278AB"/>
<path d="M11.875 21.875C11.5298 21.875 11.25 22.1548 11.25 22.5C11.25 22.8452 11.5298 23.125 11.875 23.125H18.125C18.4702 23.125 18.75 22.8452 18.75 22.5C18.75 22.1548 18.4702 21.875 18.125 21.875H11.875Z" fill="#0278AB"/>
<path fill-rule="evenodd" clip-rule="evenodd" d="M8.125 16.25C7.77982 16.25 7.5 16.5298 7.5 16.875C7.5 17.2202 7.77982 17.5 8.125 17.5H8.75V23.75C8.75 25.1307 9.86929 26.25 11.25 26.25H18.75C20.1307 26.25 21.25 25.1307 21.25 23.75V17.5H21.875C22.2202 17.5 22.5 17.2202 22.5 16.875C22.5 16.5298 22.2202 16.25 21.875 16.25H8.125ZM11.25 25C10.5596 25 10 24.4404 10 23.75V17.5H20V23.75C20 24.4404 19.4404 25 18.75 25H11.25Z" fill="#0278AB"/>
</svg>
