<svg width="160" height="160" viewBox="0 0 160 160" fill="none" xmlns="http://www.w3.org/2000/svg">
<g filter="url(#filter0_d_3_178)">
<circle cx="80" cy="80" r="60" fill="white"/>
</g>
<path d="M101.955 82.5255C99.7663 82.522 97.6258 83.1679 95.8043 84.3813C93.9828 85.5948 92.5622 87.3212 91.7222 89.3423C90.8822 91.3634 90.6606 93.5882 91.0854 95.7353C91.5102 97.8823 92.5624 99.8551 94.1088 101.404C95.6551 102.953 97.6262 104.008 99.7726 104.437C101.919 104.865 104.144 104.647 106.167 103.81C108.189 102.974 109.918 101.556 111.134 99.7362C112.351 97.9166 113 95.7772 113 93.5885C113 90.6575 111.837 87.8462 109.766 85.772C107.695 83.6978 104.886 82.5301 101.955 82.5255V82.5255ZM101.955 102.86C100.168 102.868 98.4171 102.358 96.9135 101.393C95.41 100.427 94.2181 99.0469 93.482 97.4186C92.7458 95.7904 92.4969 93.9838 92.7652 92.2171C93.0335 90.4505 93.8076 88.7993 94.994 87.463L107.83 100.734C106.178 102.104 104.101 102.856 101.956 102.86H101.955ZM109.012 99.5885L96.182 86.3345C97.9829 84.9005 100.253 84.1887 102.551 84.3381C104.848 84.4875 107.007 85.4873 108.607 87.1425C110.207 88.7977 111.133 90.9895 111.205 93.2905C111.276 95.5915 110.488 97.8367 108.994 99.588L109.012 99.5885Z" fill="#165DBA"/>
<path d="M88.224 99.5045L82.254 103.684L76.9165 100.102L70.9465 103.684L64.9765 100.102L59.9 103.147V79.403H107.924V72.836H102.85V64.692L89.179 51.642H58.0745V72.836H53V79.403H58.0745V106.358L64.94 102.239L70.91 105.821L76.88 102.239L82.289 105.821L88.2595 101.642L94.313 105.881L95.5845 104.687C94.7249 104.196 93.9238 103.609 93.1965 102.937L88.224 99.5045ZM101.06 65.4745V65.6895H91.21C90.9341 65.6895 90.6609 65.6349 90.4062 65.5287C90.1515 65.4226 89.9204 65.2671 89.7261 65.0711C89.5318 64.8752 89.3783 64.6427 89.2744 64.3871C89.1704 64.1316 89.1181 63.8579 89.1205 63.582V54.06L101.06 65.4745ZM59.8655 53.433H87.3285V63.583C87.3301 64.6117 87.7394 65.5978 88.4668 66.3252C89.1942 67.0526 90.1803 67.4619 91.209 67.4635H101.059V72.836H59.8655V53.433ZM54.791 74.627H106.134V77.612H54.791V74.627Z" fill="#165DBA"/>
<defs>
<filter id="filter0_d_3_178" x="0" y="0" width="160" height="160" filterUnits="userSpaceOnUse" color-interpolation-filters="sRGB">
<feFlood flood-opacity="0" result="BackgroundImageFix"/>
<feColorMatrix in="SourceAlpha" type="matrix" values="0 0 0 0 0 0 0 0 0 0 0 0 0 0 0 0 0 0 127 0" result="hardAlpha"/>
<feOffset/>
<feGaussianBlur stdDeviation="10"/>
<feComposite in2="hardAlpha" operator="out"/>
<feColorMatrix type="matrix" values="0 0 0 0 0 0 0 0 0 0 0 0 0 0 0 0 0 0 0.16 0"/>
<feBlend mode="normal" in2="BackgroundImageFix" result="effect1_dropShadow_3_178"/>
<feBlend mode="normal" in="SourceGraphic" in2="effect1_dropShadow_3_178" result="shape"/>
</filter>
</defs>
</svg>
