<svg width="73" height="73" viewBox="0 0 73 73" fill="none" xmlns="http://www.w3.org/2000/svg">
<path d="M28.1298 48.5206H44.8712C45.0325 48.5206 45.1872 48.4565 45.3013 48.3424C45.4154 48.2284 45.4795 48.0736 45.4795 47.9123C45.4795 47.7509 45.4154 47.5962 45.3013 47.4821C45.1872 47.368 45.0325 47.304 44.8712 47.304H28.1298C27.9685 47.304 27.8137 47.368 27.6997 47.4821C27.5856 47.5962 27.5215 47.7509 27.5215 47.9123C27.5215 48.0736 27.5856 48.2284 27.6997 48.3424C27.8137 48.4565 27.9685 48.5206 28.1298 48.5206Z" fill="#212121"/>
<path d="M19.7585 26.2314C19.7585 26.07 19.6945 25.9153 19.5804 25.8012C19.4663 25.6871 19.3116 25.623 19.1502 25.623H15.7314C15.57 25.623 15.4153 25.6871 15.3012 25.8012C15.1871 25.9153 15.123 26.07 15.123 26.2314C15.123 26.3927 15.1871 26.5475 15.3012 26.6615C15.4153 26.7756 15.57 26.8397 15.7314 26.8397H19.1502C19.3116 26.8397 19.4663 26.7756 19.5804 26.6615C19.6945 26.5475 19.7585 26.3927 19.7585 26.2314Z" fill="#212121"/>
<path d="M55.3582 38.9333C55.5195 38.9333 55.6743 38.8692 55.7884 38.7552C55.9024 38.6411 55.9665 38.4863 55.9665 38.325C55.9665 38.1637 55.9024 38.0089 55.7884 37.8949C55.6743 37.7808 55.5195 37.7167 55.3582 37.7167H17.6415C17.4802 37.7167 17.3255 37.7808 17.2114 37.8949C17.0973 38.0089 17.0332 38.1637 17.0332 38.325C17.0332 38.4863 17.0973 38.6411 17.2114 38.7552C17.3255 38.8692 17.4802 38.9333 17.6415 38.9333H20.6832V58.4C20.6832 59.6907 21.1959 60.9286 22.1086 61.8413C23.0213 62.7539 24.2591 63.2667 25.5499 63.2667H47.4499C48.7406 63.2667 49.9784 62.7539 50.8911 61.8413C51.8038 60.9286 52.3165 59.6907 52.3165 58.4V38.9333H55.3582ZM51.0999 58.4C51.0999 59.368 50.7153 60.2964 50.0308 60.9809C49.3463 61.6655 48.4179 62.05 47.4499 62.05H25.5499C24.5818 62.05 23.6534 61.6655 22.9689 60.9809C22.2844 60.2964 21.8999 59.368 21.8999 58.4V38.9333H51.0999V58.4Z" fill="#212121"/>
<path d="M28.1298 54.604H44.8712C45.0325 54.604 45.1872 54.5399 45.3013 54.4258C45.4154 54.3117 45.4795 54.157 45.4795 53.9957C45.4795 53.8343 45.4154 53.6796 45.3013 53.5655C45.1872 53.4514 45.0325 53.3873 44.8712 53.3873H28.1298C27.9685 53.3873 27.8137 53.4514 27.6997 53.5655C27.5856 53.6796 27.5215 53.8343 27.5215 53.9957C27.5215 54.157 27.5856 54.3117 27.6997 54.4258C27.8137 54.5399 27.9685 54.604 28.1298 54.604Z" fill="#212121"/>
<path d="M57.2929 19.4666H53.5334V14.5999C53.5334 13.3092 53.0207 12.0714 52.108 11.1587C51.1953 10.246 49.9575 9.73328 48.6667 9.73328H25.5501C24.2593 9.73328 23.0215 10.246 22.1088 11.1587C21.1961 12.0714 20.6834 13.3092 20.6834 14.5999V19.4666H15.6707C14.097 19.4698 12.5887 20.0964 11.476 21.2092C10.3632 22.3219 9.73661 23.8303 9.7334 25.4039V43.9459C9.73661 45.5196 10.3632 47.028 11.476 48.1407C12.5887 49.2535 14.097 49.8801 15.6707 49.8833H17.6417C17.8031 49.8833 17.9578 49.8192 18.0719 49.7051C18.186 49.591 18.2501 49.4363 18.2501 49.2749C18.2501 49.1136 18.186 48.9589 18.0719 48.8448C17.9578 48.7307 17.8031 48.6666 17.6417 48.6666H15.6707C14.4187 48.6666 13.218 48.1693 12.3327 47.284C11.4474 46.3987 10.9501 45.1979 10.9501 43.9459V25.4039C10.9501 24.1519 11.4474 22.9512 12.3327 22.0659C13.218 21.1806 14.4187 20.6833 15.6707 20.6833H57.2929C57.9159 20.6785 58.5337 20.797 59.1106 21.0321C59.6876 21.2672 60.2123 21.6141 60.6545 22.053C61.0968 22.4918 61.4478 23.0138 61.6873 23.589C61.9268 24.1641 62.0501 24.7809 62.0501 25.4039V43.9459C62.0501 44.569 61.9268 45.1858 61.6873 45.7609C61.4478 46.3361 61.0968 46.8581 60.6545 47.2969C60.2123 47.7358 59.6876 48.0827 59.1106 48.3178C58.5337 48.5529 57.9159 48.6714 57.2929 48.6666H55.3219C55.1606 48.6666 55.0058 48.7307 54.8917 48.8448C54.7777 48.9589 54.7136 49.1136 54.7136 49.2749C54.7136 49.4363 54.7777 49.591 54.8917 49.7051C55.0058 49.8192 55.1606 49.8833 55.3219 49.8833H57.2929C58.0752 49.8865 58.8505 49.7354 59.5743 49.4386C60.2982 49.1418 60.9564 48.7051 61.5113 48.1536C62.0662 47.6021 62.5068 46.9466 62.808 46.2246C63.1093 45.5026 63.2651 44.7283 63.2667 43.9459V25.4039C63.2651 24.6216 63.1093 23.8473 62.808 23.1253C62.5068 22.4033 62.0662 21.7477 61.5113 21.1963C60.9564 20.6448 60.2982 20.2081 59.5743 19.9113C58.8505 19.6145 58.0752 19.4634 57.2929 19.4666ZM21.9001 19.4666V14.5999C21.9001 13.6319 22.2846 12.7035 22.9691 12.019C23.6536 11.3345 24.582 10.9499 25.5501 10.9499H48.6667C49.6348 10.9499 50.5632 11.3345 51.2477 12.019C51.9322 12.7035 52.3167 13.6319 52.3167 14.5999V19.4666H21.9001Z" fill="#212121"/>
</svg>
